<?xml version="1.0" encoding="UTF-8"?><svg id="_レイヤー_2" xmlns="http://www.w3.org/2000/svg" viewBox="0 0 630 630"><defs><style>.cls-1,.cls-2{stroke-width:3px;}.cls-1,.cls-2,.cls-3,.cls-4,.cls-5{stroke:#333;}.cls-1,.cls-3,.cls-4{fill:#fff;}.cls-1,.cls-4,.cls-5{stroke-miterlimit:10;}.cls-2,.cls-3{stroke-linejoin:round;}.cls-2,.cls-4,.cls-5{stroke-linecap:round;}.cls-2,.cls-5{fill:none;}.cls-3,.cls-4{stroke-width:2px;}.cls-6{fill:#333;}</style></defs><path class="cls-6" d="M432.65,279.04c-12.96,10.47-26.14,22-38.86,34v78.79c0,23.51-2.17,43.55-6.51,60.09-4.34,16.56-10.72,29.84-19.15,39.86-8.43,10.01-18.91,17.31-31.43,21.87-12.54,4.58-26.74,6.87-42.65,6.87-4.3,0-8.59-.19-12.86-.61-3.86,18-7.13,34.21-9.22,44.91,4.29-2.09,9.35-4.67,15.08-7.78,1.15-.62,2.31-1.26,3.51-1.93,1.78-.99,3.63-2.02,5.54-3.12,1.04-.59,2.08-1.2,3.16-1.83.23-.11.48-.26.71-.4.65-.38,1.31-.77,1.98-1.16s1.34-.8,2.01-1.2c.69-.41,1.36-.83,2.05-1.24,4.13-2.49,8.41-5.18,12.86-8.07,1.48-.96,2.98-1.95,4.48-2.95.11-.08.21-.14.32-.21,1.32-.89,2.66-1.8,4.02-2.71,4.74-3.24,9.61-6.68,14.57-10.33,1.41-1.05,2.84-2.1,4.27-3.19,2.59-1.96,5.22-3.99,7.87-6.07.72-.56,1.43-1.13,2.15-1.71,1.06-.83,2.12-1.69,3.19-2.55,1.41-1.16,2.84-2.33,4.27-3.51,2.66-2.2,5.31-4.46,7.97-6.79.85-.73,1.69-1.47,2.54-2.22,2.54-2.23,5.1-4.53,7.64-6.89.85-.78,1.69-1.58,2.54-2.36,2.79-2.6,5.56-5.26,8.32-8,1.46-1.45,2.93-2.92,4.39-4.4.78-.77,1.53-1.55,2.29-2.34.76-.77,1.5-1.53,2.22-2.31,1.13-1.16,2.24-2.34,3.37-3.54,1.57-1.69,3.16-3.4,4.71-5.13,6.12-6.74,12.15-13.84,18.04-21.28.72-.89,1.43-1.79,2.12-2.68.71-.89,1.41-1.8,2.1-2.73,1.23-1.63,2.47-3.25,3.7-4.91.85-1.13,1.68-2.28,2.5-3.43.69-.94,1.38-1.9,2.05-2.85.69-.94,1.36-1.9,2.03-2.87.69-.96,1.36-1.93,2.01-2.9.67-.97,1.34-1.94,1.99-2.93.67-.99,1.32-1.96,1.98-2.97,1.32-1.99,2.61-4,3.9-6.03,1.25-1.98,2.5-3.99,3.74-6.01.04-.06.07-.13.12-.21.62-1,1.22-2.02,1.82-3.05.63-1.04,1.25-2.09,1.87-3.16,2.45-4.22,4.87-8.53,7.2-12.93,1.75-3.3,3.46-6.63,5.13-10.03,1.13-2.26,2.24-4.54,3.3-6.86.55-1.15,1.08-2.31,1.61-3.46,2.66-5.82,5.2-11.77,7.62-17.86.48-1.21.95-2.44,1.43-3.67.48-1.23.93-2.47,1.39-3.71.46-1.23.92-2.47,1.36-3.73.46-1.24.9-2.5,1.34-3.76,1.32-3.78,2.59-7.62,3.79-11.51.41-1.29.81-2.6,1.2-3.91.78-2.6,1.53-5.24,2.28-7.89.74-2.66,1.46-5.34,2.13-8.05.69-2.71,1.36-5.44,1.98-8.18.19-.81.39-1.63.56-2.46.44-1.95.85-3.89,1.25-5.85.28-1.36.56-2.73.83-4.1.02-.03.02-.06.02-.11v-84.88c-14.41,25.24-39.28,62.89-71.71,89.09ZM329.47,71.11v38.53c42.88,0,64.32,10.03,64.32,30.05v153.06c9.56-8.67,19.26-17.01,28.87-24.76,41.1-33.21,70.25-84.56,81.7-106.88v-21.43c0-20.02,21.68-30.05,65.03-30.05v-38.53h-239.92ZM293.61,566.58c4.87.21,9.82.32,14.9.32,62.61,0,110.92-14.38,144.89-43.11,33.97-28.74,50.95-71.21,50.95-127.38v-75.12c-42.91,143.75-159.87,218.68-210.75,245.29ZM265.52,517.57c-9.4-1.96-17.95-4.78-25.66-8.48-7.71-3.7-14.34-7.94-19.86-12.74-5.56-4.8-9.29-10.23-11.2-16.34,14.45-1.31,26.02-6.2,34.68-14.7,8.68-8.48,13.02-19.04,13.02-31.68,0-13.93-5.06-25.48-15.19-34.61-10.11-9.15-24.32-13.73-42.63-13.73-19.28,0-34.45,5.45-45.52,16.32-11.09,10.9-16.63,25.48-16.63,43.78,0,16.98,3.72,32.76,11.2,47.35,7.46,14.6,18.43,27.44,32.89,38.55,14.45,11.1,32.38,19.82,53.83,26.13,7.64,2.25,15.66,4.08,24.11,5.53,1.85-9.53,5.11-26.03,9.14-44.97-.72-.11-1.45-.27-2.17-.41ZM271.88,564.85s.05.02.07.02c.02-.02.02-.03.02-.05-.04.02-.05.03-.09.03ZM432.65,279.04c-12.96,10.47-26.14,22-38.86,34v78.79c0,23.51-2.17,43.55-6.51,60.09-4.34,16.56-10.72,29.84-19.15,39.86-8.43,10.01-18.91,17.31-31.43,21.87-12.54,4.58-26.74,6.87-42.65,6.87-4.3,0-8.59-.19-12.86-.61-3.86,18-7.13,34.21-9.22,44.91,4.29-2.09,9.35-4.67,15.08-7.78,1.15-.62,2.31-1.26,3.51-1.93,1.78-.99,3.63-2.02,5.54-3.12,1.04-.59,2.08-1.2,3.16-1.83.23-.11.48-.26.71-.4.65-.38,1.31-.77,1.98-1.16s1.34-.8,2.01-1.2c.69-.41,1.36-.83,2.05-1.24,4.13-2.49,8.41-5.18,12.86-8.07,1.48-.96,2.98-1.95,4.48-2.95.11-.08.21-.14.32-.21,1.32-.89,2.66-1.8,4.02-2.71,4.74-3.24,9.61-6.68,14.57-10.33,1.41-1.05,2.84-2.1,4.27-3.19,2.59-1.96,5.22-3.99,7.87-6.07.72-.56,1.43-1.13,2.15-1.71,1.06-.83,2.12-1.69,3.19-2.55,1.41-1.16,2.84-2.33,4.27-3.51,2.66-2.2,5.31-4.46,7.97-6.79.85-.73,1.69-1.47,2.54-2.22,2.54-2.23,5.1-4.53,7.64-6.89.85-.78,1.69-1.58,2.54-2.36,2.79-2.6,5.56-5.26,8.32-8,1.46-1.45,2.93-2.92,4.39-4.4.78-.77,1.53-1.55,2.29-2.34.76-.77,1.5-1.53,2.22-2.31,1.13-1.16,2.24-2.34,3.37-3.54,1.57-1.69,3.16-3.4,4.71-5.13,6.12-6.74,12.15-13.84,18.04-21.28.72-.89,1.43-1.79,2.12-2.68.71-.89,1.41-1.8,2.1-2.73,1.25-1.63,2.49-3.25,3.7-4.91.85-1.13,1.68-2.28,2.5-3.43.69-.94,1.38-1.9,2.05-2.85.69-.94,1.36-1.9,2.03-2.87.69-.96,1.36-1.93,2.01-2.9.67-.97,1.34-1.94,1.99-2.93.67-.99,1.32-1.96,1.98-2.97,1.32-1.99,2.61-4,3.9-6.03,1.27-1.98,2.5-3.99,3.74-6.01.04-.06.07-.13.12-.21.62-1,1.22-2.02,1.82-3.05.63-1.04,1.25-2.09,1.87-3.16,2.45-4.22,4.87-8.53,7.2-12.93,1.76-3.3,3.47-6.63,5.13-10.03,1.13-2.26,2.24-4.54,3.3-6.86.55-1.15,1.08-2.31,1.61-3.46,2.66-5.82,5.2-11.77,7.62-17.86.48-1.21.95-2.44,1.43-3.67.48-1.23.93-2.47,1.39-3.71.46-1.23.92-2.47,1.36-3.73.46-1.24.9-2.5,1.34-3.76,1.32-3.78,2.59-7.62,3.79-11.51.41-1.29.81-2.6,1.2-3.91.79-2.6,1.55-5.23,2.28-7.89.74-2.66,1.46-5.34,2.13-8.05.69-2.71,1.36-5.44,1.98-8.18.19-.81.39-1.63.56-2.46.44-1.95.85-3.89,1.25-5.85.28-1.36.56-2.73.83-4.1.02-.03.02-.06.02-.11v-84.88c-14.41,25.24-39.28,62.89-71.71,89.09Z"/><path class="cls-1" d="M511.84,202.18c0,1.32-.04,2.63-.07,3.92-.16,6.84-.49,13.57-.97,20.18-.11,1.61-.25,3.2-.37,4.8,0,.11-.02.22-.02.33-.14,1.45-.26,2.89-.41,4.3-.16,1.87-.35,3.71-.56,5.56-.18,1.64-.37,3.28-.56,4.93-.19,1.63-.41,3.25-.62,4.86-.19,1.53-.41,3.06-.63,4.58-.02.19-.05.37-.07.56-.18,1.18-.35,2.36-.55,3.52-.07.54-.16,1.08-.25,1.63-.23,1.37-.46,2.74-.69,4.1-.26,1.58-.55,3.14-.83,4.7-.28,1.51-.56,3.03-.85,4.53,0,.05-.02.1-.04.14,0,.05,0,.08-.02.11-.26,1.37-.55,2.74-.83,4.1-.41,1.96-.81,3.91-1.25,5.85-.18.83-.37,1.64-.56,2.46-.62,2.74-1.29,5.47-1.98,8.18-.67,2.71-1.39,5.39-2.13,8.05-.74,2.65-1.5,5.29-2.28,7.89-.39,1.31-.79,2.61-1.2,3.91-1.2,3.89-2.47,7.73-3.79,11.51-.44,1.26-.88,2.52-1.34,3.76-.44,1.26-.9,2.5-1.36,3.73-.46,1.24-.92,2.49-1.39,3.71-.48,1.23-.95,2.46-1.43,3.67-2.42,6.09-4.96,12.04-7.62,17.86-.53,1.15-1.06,2.31-1.61,3.46-1.06,2.31-2.17,4.59-3.3,6.86-1.68,3.4-3.39,6.73-5.13,10.03-2.33,4.4-4.74,8.7-7.2,12.93-.62,1.07-1.23,2.12-1.87,3.16-.6,1.02-1.2,2.04-1.82,3.05-.05.08-.09.14-.12.21-1.23,2.02-2.49,4.03-3.74,6.01-1.29,2.02-2.58,4.03-3.9,6.03-.65,1-1.31,1.98-1.98,2.97-.65.99-1.32,1.96-1.99,2.93-.65.97-1.32,1.95-2.01,2.9-.67.97-1.34,1.93-2.03,2.87-.67.96-1.36,1.91-2.05,2.85-.83,1.15-1.66,2.3-2.5,3.43-1.23,1.66-2.47,3.28-3.7,4.91-.69.92-1.39,1.83-2.1,2.73-.69.89-1.39,1.79-2.12,2.68-5.89,7.45-11.92,14.54-18.04,21.28-1.55,1.74-3.14,3.44-4.71,5.13-1.13,1.2-2.24,2.38-3.37,3.54-.72.78-1.46,1.55-2.22,2.31-.76.8-1.52,1.58-2.29,2.34-1.46,1.48-2.93,2.95-4.39,4.4-2.77,2.74-5.54,5.4-8.32,8-.85.78-1.69,1.58-2.54,2.36-2.54,2.36-5.1,4.66-7.64,6.89-.85.75-1.69,1.48-2.54,2.22-2.66,2.33-5.31,4.59-7.97,6.79-1.43,1.18-2.86,2.34-4.27,3.51-1.08.86-2.13,1.72-3.19,2.55-.72.57-1.43,1.15-2.15,1.71-2.65,2.09-5.27,4.11-7.87,6.07-1.43,1.08-2.86,2.14-4.27,3.19-4.96,3.65-9.82,7.09-14.57,10.33-1.36.91-2.7,1.82-4.02,2.71-.11.06-.21.13-.32.21-1.5,1-3,1.99-4.48,2.95-4.44,2.89-8.73,5.58-12.86,8.07-.69.41-1.36.83-2.05,1.24-.67.4-1.34.8-2.01,1.2s-1.32.78-1.98,1.16c-.23.14-.48.29-.71.4-1.08.64-2.12,1.24-3.16,1.83-1.9,1.1-3.76,2.14-5.54,3.12-1.2.67-2.36,1.31-3.51,1.93-5.73,3.11-10.79,5.69-15.08,7.78,2.1-10.7,5.36-26.91,9.22-44.91,7.83-36.4,18.18-80.06,26.58-100.13,11.91-28.43,46.85-69.78,86.02-106.73,12.72-12,25.89-23.53,38.86-34,32.44-26.19,57.3-63.85,71.71-89.09,2.79-4.89,5.19-9.33,7.18-13.1.35,8.61.44,17.04.3,25.33Z"/><path class="cls-2" d="M472.1,280.81s-45,73.54-96.63,129.08-65.66,109.82-65.66,109.82"/><path class="cls-6" d="M305.34,420.57c-14.66-62.7-6.66-102.52.39-137.65,7.3-36.35,13.6-67.75-6.97-115.76-5.35-12.49-12.92-19-23.14-19.93-23.96-2.18-62.81,25.66-112.2,80.48-37.9,42.06-74.48,81.69-74.79,82.12l-1.31-.42c5.07-7.17,130.26-175.2,189.14-169.83,13.52,1.23,23.69,9.56,30.22,24.8,21.44,50.03,14.94,82.41,7.41,119.91-6.91,34.44-16.23,66.86-1.92,128.09l-6.84,8.19Z"/><path class="cls-3" d="M192.8,199.07c-5.89,14.95,2.71,10.77,5.01,13.67,1.76,2.23-6.64,7.86-10.73,7.1-5.79-1.09-11.02-3.72-8.76-12.86,0,0-17.81,17.95-19.43-6.13-18.11,17.73-19.34-6.35-19.34-6.35-4.63,8.37-10.53,7.42-15.78,4.96-3.71-1.74-6.27-10.91-3.35-11.63,3.81-.93,7.55,7.23,13.45-7.72,14.62-37.09,73.56-18.11,58.93,18.98Z"/><line class="cls-5" x1="168.22" y1="176.82" x2="162.52" y2="191.28"/><path class="cls-5" d="M152.82,171.86s-5.45,5.54-8.58,13.14"/><path class="cls-5" d="M183.62,181.79s.35,7.41-2.54,15.08"/><path class="cls-3" d="M234.37,210.1c-1.08,15.84,5.91,9.67,9.01,11.88,2.38,1.7-3.96,9.22-8.13,9.51-5.9.41-11.73-.81-12.36-10.16,0,0-11.6,21.71-20.55-1.02-11.96,21.58-20.54-1.26-20.54-1.26-1.88,9.21-7.84,9.77-13.64,8.72-4.1-.75-9.38-8.91-6.79-10.33,3.37-1.85,9.47,5.05,10.55-10.79,2.67-39.3,65.12-35.83,62.45,3.47Z"/><line class="cls-5" x1="203.93" y1="194.89" x2="202.89" y2="210.21"/><path class="cls-5" d="M187.61,193.99s-3.54,6.69-4.22,14.77"/><path class="cls-5" d="M220.25,195.8s2.61,7.03,2.18,15.13"/><path class="cls-3" d="M204.03,248.13c-1.87,14.01,4.69,8.86,7.31,10.97,2.01,1.62-4.05,8-7.77,8.06-5.26.08-10.37-1.27-10.38-9.6,0,0-11.55,18.73-18.18-1.88-11.86,18.59-18.15-2.08-18.15-2.08-2.2,8.08-7.52,8.3-12.61,7.09-3.6-.86-7.81-8.35-5.43-9.49,3.1-1.48,8.12,4.93,9.98-9.08,4.63-34.76,59.86-28.74,55.22,6.01Z"/><line class="cls-5" x1="177.89" y1="233.2" x2="176.08" y2="246.75"/><path class="cls-5" d="M163.45,231.63s-3.52,5.77-4.59,12.92"/><path class="cls-5" d="M192.32,234.77s1.91,6.36,1.07,13.53"/><path class="cls-3" d="M123.33,261.89c-4.65,10.56,1.63,7.77,3.19,9.9,1.2,1.64-4.98,5.47-7.88,4.82-4.11-.92-7.78-2.93-5.89-9.41,0,0-13.26,12.43-13.73-4.85-13.47,12.26-13.66-5-13.66-5-3.56,5.88-7.75,5.06-11.44,3.17-2.6-1.34-4.17-7.96-2.06-8.4,2.75-.58,5.2,5.35,9.85-5.21,11.54-26.2,53.16-11.22,41.63,14.98Z"/><line class="cls-5" x1="106.38" y1="245.39" x2="101.89" y2="255.6"/><path class="cls-5" d="M95.51,241.48s-4.06,3.84-6.52,9.2"/><path class="cls-5" d="M117.26,249.31s.03,5.31-2.26,10.73"/><path class="cls-3" d="M146.55,236.74c-8.79,11.46-.43,9.69.78,12.63.93,2.25-7.62,5.29-10.9,3.79-4.64-2.12-13.39-5.64-9.15-12.91-17.62-.27-20.93-3.71-21.75-16.18-6.05,6.14-13.79,1.86-17.61-1.32-2.7-2.25-2.55-10.55.11-10.56,3.47,0,4.57,7.69,13.36-3.76,21.81-28.42,66.96-.11,45.16,28.31Z"/><line class="cls-5" x1="131.91" y1="213.16" x2="122.52" y2="223.63"/><path class="cls-5" d="M120.76,204.98s-6.31,3.15-11.36,8.62"/><path class="cls-5" d="M143.07,221.34s-2.11,6.23-6.98,11.82"/><path class="cls-3" d="M165.19,286.62c-4.09,9.6,1.56,7.01,3,8.93,1.1,1.47-4.44,5-7.08,4.44-3.73-.79-9.39-3.28-7.76-9.17-12.94,4.34-16.62,3.62-20.28-6.46-3.15,5.35-9.24,3.17-12.59,1.5-2.37-1.18-3.87-7.16-1.96-7.58,2.48-.55,4.76,4.79,8.85-4.81,10.14-23.81,47.96-10.65,37.83,13.16Z"/><line class="cls-5" x1="149.67" y1="271.86" x2="145.72" y2="281.14"/><path class="cls-5" d="M139.79,268.42s-3.63,3.51-5.79,8.38"/><path class="cls-5" d="M159.56,275.3s.09,4.8-1.92,9.73"/><path class="cls-4" d="M97.61,269.93s-11.68-5.92-25.28,7.04c-15.89,15.14,6.46,16.76,9.55,16.82,0,0,5.02,10.51,11.97,9.39,4.17-.67,9.58-7.84,12.13-12.35,6.78-12.03-5.5-19.74-8.36-20.89Z"/><line class="cls-5" x1="92.76" y1="278.89" x2="85.61" y2="288.95"/><path class="cls-5" d="M99.88,282.36s-1.86,5.16-5.59,10.51"/><path class="cls-5" d="M85.64,275.41s-4.54,3.86-8.38,9.14"/><path class="cls-4" d="M87.54,297.1s-11.68-5.92-25.28,7.04c-15.89,15.14,6.46,16.76,9.55,16.82,0,0,5.02,10.51,11.97,9.39,4.17-.67,9.58-7.84,12.13-12.35,6.78-12.03-5.5-19.74-8.36-20.89Z"/><line class="cls-5" x1="82.68" y1="306.06" x2="75.53" y2="316.12"/><path class="cls-5" d="M89.8,309.53s-1.86,5.16-5.59,10.51"/><path class="cls-5" d="M75.57,302.59s-4.54,3.86-8.38,9.14"/><path class="cls-4" d="M116.72,284.05s-13.39-.12-18.43,17.15c-5.89,20.18,14.57,11.89,17.31,10.6,0,0,9.99,7.04,15.49,3.03,3.3-2.4,4.24-11.03,4.07-16.09-.45-13.49-15.32-14.92-18.44-14.69Z"/><line class="cls-5" x1="117.23" y1="294.02" x2="116.31" y2="305.95"/><path class="cls-5" d="M125.32,293.97s1.11,5.34.69,11.64"/><path class="cls-5" d="M109.14,294.06s-1.94,5.35-2.49,11.66"/><path class="cls-4" d="M101.88,303.99s-13.27-1.6-20.61,14.99c-8.57,19.37,12.86,13.41,15.75,12.43,0,0,8.97,8.09,14.96,4.72,3.6-2.02,5.7-10.48,6.21-15.52,1.38-13.44-13.19-16.5-16.32-16.62Z"/><line class="cls-5" x1="101.03" y1="313.93" x2="98.51" y2="325.68"/><path class="cls-5" d="M109.07,314.78s.38,5.42-.89,11.63"/><path class="cls-5" d="M93,313.09s-2.64,5.1-4.04,11.3"/></svg>