<?xml version="1.0" encoding="UTF-8"?><svg id="_ロゴだけ" xmlns="http://www.w3.org/2000/svg" viewBox="0 0 1200 630"><defs><style>.cls-1{fill:#fff;}.cls-1,.cls-2{stroke-linejoin:round;}.cls-1,.cls-2,.cls-3{stroke:#1a1a1a;stroke-width:4px;}.cls-2,.cls-3{fill:none;}.cls-3{stroke-miterlimit:10;}.cls-4{fill:#1a1a1a;}</style></defs><path class="cls-2" d="M511.44,276.72c-7.43-23.16-41.22-24.72-51.5,9.06-5.26,17.27-8.41,8.68-11.72,10.17-2.54,1.14-.41,10.99,2.79,12.48,4.52,2.11,9.61,2.46,13.71-7.37,0,0,.83,26.54,16.69,4.73,1.16,26.49,16.77,4.47,16.77,4.47-.29,1.5-.46,2.83-.49,4.02"/><path class="cls-2" d="M569.79,297.07c1.15,18.35,7.53,10.35,11.06,12.49,2.71,1.64-2.8,11.11-7.09,11.98-6.07,1.23-12.31.58-14.3-10.08,0,0-8.94,26.46-21.5,1.49-9.33,26.35-21.52,1.22-21.52,1.22-.64,10.83-6.75,12.25-12.92,11.79-4.37-.33-11.02-9.03-8.53-11,3.24-2.57,10.57,4.58,9.41-13.77-2.86-45.52,62.52-49.63,65.38-4.11Z"/><path class="cls-1" d="M526.9,276.44s-4.7,18.15,0,29.33"/><polyline class="cls-2" points="547.48 277.9 525.86 292.49 549.59 305.12"/><circle class="cls-4" cx="699.36" cy="134.56" r="40.06"/><path class="cls-4" d="M569.64,495.44c-6.62-1.52-12.65-3.72-18.08-6.62-5.42-2.87-10.1-6.18-13.99-9.92-3.91-3.73-6.54-7.97-7.89-12.72,10.18-1.01,18.32-4.84,24.43-11.46,6.1-6.62,9.16-14.83,9.16-24.68,0-10.86-3.57-19.85-10.68-26.98-7.13-7.12-17.15-10.68-30.04-10.68-13.58,0-24.26,4.24-32.06,12.72-7.81,8.48-11.72,19.85-11.72,34.11,0,13.23,2.64,25.53,7.89,36.89,5.26,11.37,12.99,21.39,23.16,30.04,10.18,8.65,22.82,15.44,37.93,20.35,2.45.8,3.02.96,5.59,1.62,9.58-6.21,21.02-15.3,29.46-30.53-4.66-.3-8.6-1.08-13.17-2.14ZM659.98,203.83v117.6c26.06-12.69,55.89-18.54,77.87-21.24v-96.36h-77.87ZM736.54,315.33c-19.68,13.08-39.1,38.71-39.1,93.61,0,74.99-40.4,107.99-82.99,122.36-2.4.81-4.79,1.56-7.17,2.25,2.87-.04,5.7-.14,8.48-.29,37.95-1.99,64.65-12.78,86.21-32.98,23.93-22.4,35.88-55.48,35.88-99.25v-86.54c-.43.26-.88.55-1.31.84Z"/><path class="cls-3" d="M743.97,305.34c-2.11.93-4.3,1.99-6.5,3.21-21.17,11.7-46.2,37.47-46.2,97.27,0,75.63-43.74,111.62-90.47,123.27-18.05,4.51-35.19,6.03-48.02,6.41,5.47-1.91,10.69-5.82,16.85-10.94,8.58-7.12,13.84-13.06,20.66-28.15,9.09-20.12,17.09-47.85,17.09-88.07s23.13-64.09,52.2-79.62c25.26-13.5,54.98-19.35,77.88-22.54,2.24-.3,4.4-.59,6.5-.84Z"/><path class="cls-3" d="M684.79,334.22s-36.28,36.78-36.28,88.49c0,56.19-38.22,82.39-38.22,82.39"/><path class="cls-3" d="M539.55,265.49s17.6-30.01,43.93-30.01c35.81,0,57.47,20.54,50.36,45.76s-45.1,58.52-50.36,95.06c-5.26,36.54,15.82,95.46,15.82,95.46"/><path class="cls-3" d="M575.06,236.51s-51.14.96-73.92,25.36"/></svg>