<?xml version="1.0" encoding="UTF-8"?><svg id="_レイヤー_3" xmlns="http://www.w3.org/2000/svg" viewBox="0 0 2103.18 630"><defs><style>.cls-1,.cls-2,.cls-3,.cls-4{stroke:#333;}.cls-1,.cls-3{stroke-linejoin:round;}.cls-1,.cls-3,.cls-5{fill:#fff;}.cls-2,.cls-3,.cls-5,.cls-6{stroke-width:2px;}.cls-2,.cls-5,.cls-4,.cls-6{stroke-miterlimit:10;}.cls-2,.cls-4,.cls-6{fill:none;}.cls-5,.cls-6{stroke:#000;}.cls-4{stroke-linecap:round;}.cls-7{fill:#333;}</style></defs><path class="cls-3" d="M192.47,294.07c-3.11,10.24,1.33,6.88,2.49,8.62.89,1.34-3.45,5.64-5.55,5.42-2.97-.3-5.64-1.67-4.42-7.83,0,0-9.25,13.05-9.94-2.65-9.4,12.93-9.89-2.8-9.89-2.8-2.43,5.83-5.45,5.62-8.13,4.37-1.89-.88-3.16-6.72-1.65-7.4,1.96-.88,3.83,4.21,6.95-6.03,7.72-25.4,37.87-17.1,30.14,8.3Z"/><line class="cls-4" x1="179.98" y1="281.2" x2="176.97" y2="291.1"/><path class="cls-4" d="M172.1,279.03s-2.83,4.03-4.48,9.24"/><path class="cls-4" d="M187.86,283.37s.13,4.84-1.39,10.09"/><path class="cls-3" d="M227.44,292.46c.68,10.88,4.46,6.13,6.56,7.4,1.61.97-1.66,6.59-4.2,7.1-3.6.73-7.3.35-8.47-5.97,0,0-5.3,15.69-12.74.88-5.53,15.62-12.75.72-12.75.72-.38,6.42-4,7.26-7.66,6.99-2.59-.19-6.53-5.35-5.06-6.52,1.92-1.52,6.26,2.71,5.58-8.16-1.7-26.98,37.06-29.42,38.76-2.43Z"/><path class="cls-1" d="M202.01,280.24s-2.79,10.76,0,17.39"/><polyline class="cls-1" points="214.21 281.1 201.39 289.75 215.46 297.24"/><circle class="cls-7" cx="311.71" cy="188.92" r="25.85"/><path class="cls-7" d="M228.02,421.76c-4.27-.98-8.16-2.4-11.67-4.27-3.5-1.85-6.52-3.99-9.03-6.4-2.52-2.41-4.22-5.14-5.09-8.21,6.57-.65,11.82-3.12,15.76-7.39,3.94-4.27,5.91-9.57,5.91-15.92,0-7.01-2.3-12.81-6.89-17.41-4.6-4.59-11.07-6.89-19.38-6.89-8.76,0-15.65,2.74-20.69,8.21-5.04,5.47-7.56,12.81-7.56,22.01,0,8.54,1.7,16.47,5.09,23.8,3.39,7.34,8.38,13.8,14.94,19.38,6.57,5.58,14.72,9.96,24.47,13.13,1.58.52,3.21.99,4.86,1.41,6.18-4.01,12.74-10.29,18.19-20.12-3.01-.19-5.98-.65-8.93-1.33ZM286.3,233.61v77.17c16.81-8.19,36.06-11.96,50.24-13.7v-63.46h-50.24ZM335.7,304.91c-12.7,8.44-25.7,25.72-25.7,61.15,0,48.38-27.58,69.75-55.06,79.02-1.55.52-3.09,1.01-4.63,1.45,1.85-.03,3.68-.09,5.47-.19,24.49-1.28,43.7-8.43,57.61-21.46,15.44-14.45,23.15-35.8,23.15-64.04v-56.48c-.28.17-.57.35-.85.54Z"/><path class="cls-5" d="M340.49,299.11c-1.36.6-2.77,1.29-4.19,2.07-13.66,7.55-29.81,24.17-29.81,62.76,0,48.8-28.22,72.02-58.37,79.53-11.64,2.91-22.7,3.89-30.98,4.13,3.53-1.23,6.9-3.76,10.87-7.06,5.54-4.59,8.93-8.42,13.33-18.16,5.87-12.98,11.03-30.87,11.03-56.82s14.92-41.35,33.68-51.37c16.29-8.71,35.47-12.49,50.25-14.54,1.45-.19,2.84-.38,4.19-.54Z"/><path class="cls-6" d="M302.31,317.74s-23.41,23.73-23.41,57.09c0,36.25-24.66,53.16-24.66,53.16"/><path class="cls-2" d="M208.6,273.4s11.36-19.36,28.34-19.36c23.1,0,37.08,13.25,32.49,29.53-4.59,16.27-29.1,37.76-32.49,61.33-3.39,23.57,9.33,60.08,9.33,60.08"/><path class="cls-2" d="M231.51,254.7s-33,.62-47.69,16.37"/><path d="M441.84,229.06l10.42,5.38c-19.97,20.67-32.3,46.37-32.3,77.28s12.33,56.61,32.3,77.28l-10.42,5.38c-20.84-21.19-34.56-48.8-34.56-82.66s13.72-61.48,34.56-82.66Z"/><path d="M504.01,265.35h22.23v12.16h-22.23v5.9c4.69,6.25,18.58,27.96,21.53,33.34l-7.99,9.38c-2.43-5.9-8.34-17.37-13.55-26.74v92.04h-12.68v-85.44c-5.9,19.62-13.89,38.55-22.05,50.19-1.39-3.82-4.69-9.55-6.95-12.68,11.29-14.59,22.23-42.2,27.79-65.99h-23.96v-12.16h25.18v-33.52h12.68v33.52ZM550.72,264.48h18.23v-32.65h12.68v32.65h34.21v11.98h-34.21v30.74h40.46v11.98h-32.65c8.68,20.67,23.27,41.33,37.34,52.27-2.95,2.26-7.29,6.77-9.55,10.07-13.2-12.16-26.57-33.34-35.6-54.7v64.6h-12.68v-62.69c-10.77,22.23-26.4,42.55-42.55,54.18-2.08-3.13-5.9-7.64-8.86-10.07,16.84-10.77,33.86-31.95,43.76-53.66h-33.86v-11.98h41.5v-30.74h-21.71c-3.12,9.73-6.95,18.58-11.29,25.53-2.43-1.74-7.64-5.04-10.77-6.43,9.38-13.72,14.76-34.38,17.89-55.57l12.16,2.08c-1.22,7.64-2.78,15.11-4.52,22.4Z"/><path d="M645.37,394.38l-10.42-5.38c19.97-20.67,32.3-46.37,32.3-77.28s-12.33-56.61-32.3-77.28l10.42-5.38c20.84,21.19,34.56,48.8,34.56,82.66s-13.72,61.48-34.56,82.66Z"/><path d="M818.34,296.79h71.2v13.37h-71.2v81.45h-14.07v-81.45h-70.51v-13.37h70.51v-64.78h14.07v64.78Z"/><path d="M991.13,261.36h72.42v12.68h-26.74c-10.25,28.83-24.14,51.75-42.37,70.33,19.1,15.98,42.72,27.79,71.2,34.56-3.3,2.95-7.29,9.03-9.55,12.85-29.17-7.64-52.97-20.32-72.24-37.51-19.28,16.32-42.72,28.48-70.85,37.68-1.56-3.3-5.9-9.55-8.51-12.68,27.96-7.99,50.88-19.28,69.46-34.56-18.06-19.1-31.61-42.89-41.5-70.68h-25.88v-12.68h71.2v-29.52h13.37v29.52ZM1021.69,274.04h-75.02c8.68,23.62,21.19,44.11,37.86,60.95,15.98-16.15,28.13-36.29,37.16-60.95Z"/><path d="M1197.79,281.33l8.51,6.6c-10.42,11.46-25.88,23.96-40.81,32.13v5.56h67.9v12.5h-67.9v37.34c0,7.81-2.08,11.64-8.34,13.72-6.08,1.91-15.28,2.08-30.04,2.08-.87-3.65-3.3-9.38-5.56-13.03,11.63.35,22.92.35,26.05.35,3.13-.17,3.99-1.04,3.99-3.47v-36.99h-67.73v-12.5h67.73v-13.02h6.95c8.34-5.04,17.19-11.98,24.14-18.58h-70.68v-11.98h82.84l2.95-.69ZM1231.3,291.58h-13.37v-28.48h-119.48v28.48h-13.02v-40.98h65.82v-19.1h13.72v19.1h66.34v40.98Z"/><path d="M1259.79,377.19c-2.26-1.39-7.29-3.82-10.07-4.86,5.73-10.59,8.86-26.05,10.94-41.33l10.94,1.91c-2.43,16.32-6.43,33.17-11.81,44.28ZM1262.39,308.25c3.65-4.34,7.29-9.38,11.11-14.76-5.21-7.81-14.07-17.89-21.71-25.53l6.77-8.34,5.38,5.04c5.56-9.9,11.81-23.27,15.63-33l11.29,4.69c-5.9,11.81-13.55,25.88-19.8,35.77,3.47,3.82,6.6,7.81,9.03,11.29,7.12-10.94,13.72-22.23,18.58-31.61l10.94,4.86c-9.9,16.15-23.27,35.95-34.91,50.88l26.4-1.74c-2.78-5.04-5.73-9.9-8.68-14.41l9.38-3.99c7.99,11.11,16.15,26.05,19.1,35.6l-10.07,4.86c-1.04-3.47-2.6-7.47-4.69-11.98l-14.94,1.39v74.15h-11.46v-73.11l-27.44,2.26-1.91-11.64,11.98-.69ZM1317.96,362.43l-10.42,3.47c-1.22-8.68-5.73-22.05-10.07-32.3l9.73-2.95c4.69,9.9,9.03,23.1,10.77,31.78ZM1320.91,384.31l-10.25-4.86c6.95-8.51,11.98-23.62,14.07-36.99l10.77,1.91c-2.26,14.07-7.12,30.04-14.59,39.94ZM1323.17,281.68c-2.26-2.08-7.29-6.08-10.42-7.64,11.81-9.55,21.71-24.31,27.26-40.12l12.33,2.95c-6.43,17.71-17.54,34.04-29.17,44.8ZM1337.93,300.08c5.38-11.46,11.46-27.79,14.76-39.42l13.2,3.47c-4.86,11.46-10.59,24.66-15.8,35.25l32.65-1.91c-3.47-5.04-7.29-10.07-10.77-14.41l9.9-5.04c9.38,11.29,20.32,26.74,25.01,36.64l-10.42,5.9c-1.74-3.65-4.17-8.16-7.12-13.02-23.96,2.08-48.28,3.99-66.16,5.38l-2.26-11.98,17.02-.87ZM1359.12,380.32h14.59c3.99,0,4.86-2.26,5.21-18.23,2.6,1.91,7.64,3.82,10.94,4.69-1.22,19.97-4.69,24.66-14.59,24.66h-17.89c-12.68,0-15.46-3.47-15.46-15.8v-37.68h11.98v37.68c0,3.99.7,4.69,5.21,4.69ZM1380.13,336.55l-8.51,7.99c-5.73-7.29-18.06-16.67-28.83-21.88l7.99-7.29c11.29,5.21,23.44,14.07,29.35,21.19ZM1414.17,269.52c-2.95,2.08-6.95,6.43-9.2,9.38-10.94-9.2-25.18-26.4-33.34-40.98l10.77-4.52c7.12,13.2,20.84,28.31,31.78,36.12ZM1414,379.45l-10.77,5.56c-2.43-11.11-10.77-27.79-19.8-40.12l10.07-5.04c9.2,12.33,17.89,28.48,20.49,39.59Z"/><path d="M1432.75,307.03c-1.56-2.95-5.21-7.64-8.16-10.42,30.56-15.28,59.74-41.85,73.29-64.43h13.37c18.58,25.88,49.15,50.01,76.93,62.34-3.3,3.3-6.42,7.81-8.86,11.46-27.09-14.24-57.66-38.73-73.98-60.95-14.41,21.19-42.72,46.02-72.59,62ZM1559.18,391.78h-13.2v-7.29h-80.23v7.29h-12.85v-69.64h106.28v69.64ZM1549.63,300.26h-87.7v-11.64h87.7v11.64ZM1545.98,372.85v-38.9h-80.23v38.9h80.23Z"/><path d="M1671.36,239.3v58.52h-50.54v93.95h-12.85v-152.47h63.39ZM1659.03,249.2h-38.21v14.24h38.21v-14.24ZM1620.83,272.65v15.11h38.21v-15.11h-38.21ZM1726.07,349.58h-23.62v38.73h-11.63v-38.73h-24.66c-1.22,11.63-6.77,30.04-23.44,41.33-1.91-2.43-5.9-6.08-8.68-7.99,14.59-8.86,19.45-23.27,20.67-33.34h-21.71v-11.11h22.05v-18.93h-18.93v-10.77h86.31v10.77h-19.97v18.93h23.62v11.11ZM1666.5,319.54v18.93h24.31v-18.93h-24.31ZM1744.82,389c-5.21,2.08-13.89,2.43-27.26,2.26-.35-3.47-2.08-9.55-3.99-13.03,9.55.17,18.76.17,21.53.17,2.78-.17,3.65-1.04,3.65-3.82v-76.58h-51.92v-58.7h64.78v135.46c0,7.81-1.74,11.98-6.77,14.24ZM1738.74,249.2h-39.59v14.24h39.59v-14.24ZM1699.15,272.65v15.28h39.59v-15.28h-39.59Z"/><path d="M1887.57,378.41h19.97c5.56,0,6.43-3.3,7.12-21.88,2.78,2.26,8.16,4.34,11.81,5.21-1.39,22.23-5.04,28.65-17.89,28.65h-22.75c-14.76,0-18.58-3.99-18.58-18.58v-27.79h-31.61c-2.78,18.76-13.37,36.47-47.58,48.28-1.56-2.95-5.38-7.64-8.16-10.07,29.35-9.9,39.42-23.79,42.55-38.21h-38.9v-12.16h40.29v-25.88h-18.41v-6.77c-8.51,6.25-17.37,11.46-26.22,15.46-1.74-2.95-5.38-7.47-7.99-9.9,12.16-4.86,24.66-12.85,35.6-22.75-5.38-5.38-14.07-12.85-21.19-18.23l8.34-6.95c6.95,5.04,15.63,11.81,21.01,17.02,6.42-7.12,11.98-14.76,16.32-23.1h-43.42v-11.46h49.67l2.43-.52,8.68,4.17c-7.64,20.32-20.67,37.34-36.12,50.54h81.62c-16.67-15.28-30.04-35.25-38.73-57.66l11.29-3.47c2.95,7.64,6.6,14.93,10.94,21.88,7.64-6.25,16.15-14.41,21.53-20.49l9.9,6.95c-7.64,7.64-17.37,15.98-25.7,22.06,3.47,4.69,7.29,9.2,11.29,13.37,8.68-6.6,18.93-15.8,25.01-22.58l9.72,6.95c-7.99,7.81-18.41,16.32-27.26,22.75,9.73,8.51,20.84,15.46,32.82,20.14-3.13,2.6-7.12,7.47-9.2,10.94-8.86-3.99-17.19-9.03-24.83-15.11v6.77h-20.32v25.88h41.5v12.16h-41.5v27.96c0,5.56,1.04,6.42,6.95,6.42ZM1836.69,331.86h30.56v-25.88h-30.56v25.88Z"/></svg>