<?xml version="1.0" encoding="UTF-8"?><svg id="_ロゴ_名前" xmlns="http://www.w3.org/2000/svg" viewBox="890 0 1850 443.38"><defs><style>.cls-1{fill:#fff;}.cls-1,.cls-2{stroke-linejoin:round;}.cls-1,.cls-2,.cls-3{stroke:#1a1a1a;stroke-width:4px;}.cls-2,.cls-3{fill:none;}.cls-3{stroke-miterlimit:10;}.cls-4{fill:#1a1a1a;}</style></defs><path d="M1216.74,140.56l10.42,5.38c-19.97,20.67-32.3,46.37-32.3,77.28s12.33,56.61,32.3,77.28l-10.42,5.38c-20.84-21.19-34.56-48.8-34.56-82.66s13.72-61.48,34.56-82.66Z"/><path d="M1278.91,176.85h22.23v12.16h-22.23v5.9c4.69,6.25,18.58,27.96,21.53,33.34l-7.99,9.38c-2.43-5.9-8.34-17.37-13.55-26.74v92.04h-12.68v-85.44c-5.9,19.62-13.89,38.55-22.05,50.19-1.39-3.82-4.69-9.55-6.95-12.68,11.29-14.59,22.23-42.2,27.79-65.99h-23.96v-12.16h25.18v-33.52h12.68v33.52ZM1325.62,175.98h18.23v-32.65h12.68v32.65h34.21v11.98h-34.21v30.74h40.46v11.98h-32.65c8.68,20.67,23.27,41.33,37.34,52.27-2.95,2.26-7.29,6.77-9.55,10.07-13.2-12.16-26.57-33.34-35.6-54.7v64.6h-12.68v-62.69c-10.77,22.23-26.4,42.55-42.55,54.18-2.08-3.13-5.9-7.64-8.86-10.07,16.84-10.77,33.86-31.95,43.76-53.66h-33.86v-11.98h41.5v-30.74h-21.71c-3.12,9.73-6.95,18.58-11.29,25.53-2.43-1.74-7.64-5.04-10.77-6.43,9.38-13.72,14.76-34.38,17.89-55.57l12.16,2.08c-1.22,7.64-2.78,15.11-4.52,22.4Z"/><path d="M1420.27,305.88l-10.42-5.38c19.97-20.67,32.3-46.37,32.3-77.28s-12.33-56.61-32.3-77.28l10.42-5.38c20.84,21.19,34.56,48.8,34.56,82.66s-13.72,61.48-34.56,82.66Z"/><path d="M1593.24,208.29h71.2v13.37h-71.2v81.45h-14.07v-81.45h-70.51v-13.37h70.51v-64.78h14.07v64.78Z"/><path d="M1766.03,172.86h72.42v12.68h-26.74c-10.25,28.83-24.14,51.75-42.37,70.33,19.1,15.98,42.72,27.79,71.2,34.56-3.3,2.95-7.29,9.03-9.55,12.85-29.17-7.64-52.97-20.32-72.24-37.51-19.28,16.32-42.72,28.48-70.85,37.68-1.56-3.3-5.9-9.55-8.51-12.68,27.96-7.99,50.88-19.28,69.46-34.56-18.06-19.1-31.61-42.89-41.5-70.68h-25.88v-12.68h71.2v-29.52h13.37v29.52ZM1796.59,185.54h-75.02c8.68,23.62,21.19,44.11,37.86,60.95,15.98-16.15,28.13-36.29,37.16-60.95Z"/><path d="M1972.69,192.83l8.51,6.6c-10.42,11.46-25.88,23.96-40.81,32.13v5.56h67.9v12.5h-67.9v37.34c0,7.81-2.08,11.64-8.34,13.72-6.08,1.91-15.28,2.08-30.04,2.08-.87-3.65-3.3-9.38-5.56-13.03,11.63.35,22.92.35,26.05.35,3.13-.17,3.99-1.04,3.99-3.47v-36.99h-67.73v-12.5h67.73v-13.02h6.95c8.34-5.04,17.19-11.98,24.14-18.58h-70.68v-11.98h82.84l2.95-.69ZM2006.2,203.08h-13.37v-28.48h-119.48v28.48h-13.02v-40.98h65.82v-19.1h13.72v19.1h66.34v40.98Z"/><path d="M2034.69,288.69c-2.26-1.39-7.29-3.82-10.07-4.86,5.73-10.59,8.86-26.05,10.94-41.33l10.94,1.91c-2.43,16.32-6.43,33.17-11.81,44.28ZM2037.29,219.75c3.65-4.34,7.29-9.38,11.11-14.76-5.21-7.81-14.07-17.89-21.71-25.53l6.77-8.34,5.38,5.04c5.56-9.9,11.81-23.27,15.63-33l11.29,4.69c-5.9,11.81-13.55,25.88-19.8,35.77,3.47,3.82,6.6,7.81,9.03,11.29,7.12-10.94,13.72-22.23,18.58-31.61l10.94,4.86c-9.9,16.15-23.27,35.95-34.91,50.88l26.4-1.74c-2.78-5.04-5.73-9.9-8.68-14.41l9.38-3.99c7.99,11.11,16.15,26.05,19.1,35.6l-10.07,4.86c-1.04-3.47-2.6-7.47-4.69-11.98l-14.94,1.39v74.15h-11.46v-73.11l-27.44,2.26-1.91-11.64,11.98-.69ZM2092.86,273.93l-10.42,3.47c-1.22-8.68-5.73-22.05-10.07-32.3l9.73-2.95c4.69,9.9,9.03,23.1,10.77,31.78ZM2095.81,295.81l-10.25-4.86c6.95-8.51,11.98-23.62,14.07-36.99l10.77,1.91c-2.26,14.07-7.12,30.04-14.59,39.94ZM2098.07,193.18c-2.26-2.08-7.29-6.08-10.42-7.64,11.81-9.55,21.71-24.31,27.26-40.12l12.33,2.95c-6.43,17.71-17.54,34.04-29.17,44.8ZM2112.83,211.58c5.38-11.46,11.46-27.79,14.76-39.42l13.2,3.47c-4.86,11.46-10.59,24.66-15.8,35.25l32.65-1.91c-3.47-5.04-7.29-10.07-10.77-14.41l9.9-5.04c9.38,11.29,20.32,26.74,25.01,36.64l-10.42,5.9c-1.74-3.65-4.17-8.16-7.12-13.02-23.96,2.08-48.28,3.99-66.16,5.38l-2.26-11.98,17.02-.87ZM2134.02,291.82h14.59c3.99,0,4.86-2.26,5.21-18.23,2.6,1.91,7.64,3.82,10.94,4.69-1.22,19.97-4.69,24.66-14.59,24.66h-17.89c-12.68,0-15.46-3.47-15.46-15.8v-37.68h11.98v37.68c0,3.99.7,4.69,5.21,4.69ZM2155.03,248.05l-8.51,7.99c-5.73-7.29-18.06-16.67-28.83-21.88l7.99-7.29c11.29,5.21,23.44,14.07,29.35,21.19ZM2189.07,181.02c-2.95,2.08-6.95,6.43-9.2,9.38-10.94-9.2-25.18-26.4-33.34-40.98l10.77-4.52c7.12,13.2,20.84,28.31,31.78,36.12ZM2188.9,290.95l-10.77,5.56c-2.43-11.11-10.77-27.79-19.8-40.12l10.07-5.04c9.2,12.33,17.89,28.48,20.49,39.59Z"/><path d="M2207.65,218.53c-1.56-2.95-5.21-7.64-8.16-10.42,30.56-15.28,59.74-41.85,73.29-64.43h13.37c18.58,25.88,49.15,50.01,76.93,62.34-3.3,3.3-6.42,7.81-8.86,11.46-27.09-14.24-57.66-38.73-73.98-60.95-14.41,21.19-42.72,46.02-72.59,62ZM2334.08,303.28h-13.2v-7.29h-80.23v7.29h-12.85v-69.64h106.28v69.64ZM2324.53,211.76h-87.7v-11.64h87.7v11.64ZM2320.88,284.35v-38.9h-80.23v38.9h80.23Z"/><path d="M2446.26,150.8v58.52h-50.54v93.95h-12.85v-152.47h63.39ZM2433.93,160.7h-38.21v14.24h38.21v-14.24ZM2395.73,184.15v15.11h38.21v-15.11h-38.21ZM2500.97,261.08h-23.62v38.73h-11.63v-38.73h-24.66c-1.22,11.63-6.77,30.04-23.44,41.33-1.91-2.43-5.9-6.08-8.68-7.99,14.59-8.86,19.45-23.27,20.67-33.34h-21.71v-11.11h22.05v-18.93h-18.93v-10.77h86.31v10.77h-19.97v18.93h23.62v11.11ZM2441.4,231.04v18.93h24.31v-18.93h-24.31ZM2519.72,300.5c-5.21,2.08-13.89,2.43-27.26,2.26-.35-3.47-2.08-9.55-3.99-13.03,9.55.17,18.76.17,21.53.17,2.78-.17,3.65-1.04,3.65-3.82v-76.58h-51.92v-58.7h64.78v135.46c0,7.81-1.74,11.98-6.77,14.24ZM2513.64,160.7h-39.59v14.24h39.59v-14.24ZM2474.05,184.15v15.28h39.59v-15.28h-39.59Z"/><path d="M2662.47,289.91h19.97c5.56,0,6.43-3.3,7.12-21.88,2.78,2.26,8.16,4.34,11.81,5.21-1.39,22.23-5.04,28.65-17.89,28.65h-22.75c-14.76,0-18.58-3.99-18.58-18.58v-27.79h-31.61c-2.78,18.76-13.37,36.47-47.58,48.28-1.56-2.95-5.38-7.64-8.16-10.07,29.35-9.9,39.42-23.79,42.55-38.21h-38.9v-12.16h40.29v-25.88h-18.41v-6.77c-8.51,6.25-17.37,11.46-26.22,15.46-1.74-2.95-5.38-7.47-7.99-9.9,12.16-4.86,24.66-12.85,35.6-22.75-5.38-5.38-14.07-12.85-21.19-18.23l8.34-6.95c6.95,5.04,15.63,11.81,21.01,17.02,6.42-7.12,11.98-14.76,16.32-23.1h-43.42v-11.46h49.67l2.43-.52,8.68,4.17c-7.64,20.32-20.67,37.34-36.12,50.54h81.62c-16.67-15.28-30.04-35.25-38.73-57.66l11.29-3.47c2.95,7.64,6.6,14.93,10.94,21.88,7.64-6.25,16.15-14.41,21.53-20.49l9.9,6.95c-7.64,7.64-17.37,15.98-25.7,22.06,3.47,4.69,7.29,9.2,11.29,13.37,8.68-6.6,18.93-15.8,25.01-22.58l9.72,6.95c-7.99,7.81-18.41,16.32-27.26,22.75,9.73,8.51,20.84,15.46,32.82,20.14-3.13,2.6-7.12,7.47-9.2,10.94-8.86-3.99-17.19-9.03-24.83-15.11v6.77h-20.32v25.88h41.5v12.16h-41.5v27.96c0,5.56,1.04,6.42,6.95,6.42ZM2611.59,243.36h30.56v-25.88h-30.56v25.88Z"/><path class="cls-2" d="M963.22,187.32c-4.87-15.17-26.99-16.19-33.72,5.93-3.44,11.31-5.51,5.68-7.68,6.66-1.66.75-.27,7.2,1.82,8.17,2.96,1.38,6.29,1.61,8.98-4.82,0,0,.54,17.38,10.93,3.1.76,17.35,10.98,2.93,10.98,2.93-.19.98-.3,1.85-.32,2.63"/><path class="cls-2" d="M1001.43,200.64c.75,12.02,4.93,6.77,7.24,8.18,1.78,1.08-1.83,7.28-4.64,7.85-3.97.81-8.06.38-9.36-6.6,0,0-5.86,17.33-14.08.97-6.11,17.25-14.09.8-14.09.8-.42,7.09-4.42,8.02-8.46,7.72-2.86-.21-7.22-5.91-5.59-7.2,2.12-1.68,6.92,3,6.16-9.02-1.87-29.81,40.94-32.5,42.81-2.69Z"/><path class="cls-1" d="M973.35,187.13s-3.08,11.89,0,19.21"/><polyline class="cls-2" points="986.82 188.09 972.66 197.64 988.2 205.91"/><circle class="cls-4" cx="1086.27" cy="94.23" r="26.23"/><path class="cls-4" d="M1001.34,330.52c-4.33-1-8.28-2.44-11.84-4.33-3.55-1.88-6.61-4.05-9.16-6.5-2.56-2.44-4.28-5.22-5.17-8.33,6.67-.66,12-3.17,16-7.5,3.99-4.33,6-9.71,6-16.16,0-7.11-2.34-13-6.99-17.67-4.67-4.66-11.23-6.99-19.67-6.99-8.89,0-15.88,2.78-20.99,8.33-5.11,5.55-7.67,13-7.67,22.33,0,8.66,1.73,16.72,5.17,24.15,3.44,7.44,8.51,14.01,15.16,19.67,6.67,5.66,14.94,10.11,24.84,13.32,1.6.52,1.98.63,3.66,1.06,6.27-4.07,13.77-10.02,19.29-19.99-3.05-.2-5.63-.71-8.62-1.4ZM1060.49,139.59v77c17.06-8.31,36.59-12.14,50.99-13.91v-63.09h-50.99ZM1110.62,212.59c-12.89,8.56-25.6,25.35-25.6,61.29,0,49.1-26.45,70.71-54.34,80.12-1.57.53-3.14,1.02-4.69,1.47,1.88-.03,3.73-.09,5.55-.19,24.85-1.3,42.33-8.37,56.45-21.6,15.67-14.67,23.49-36.33,23.49-64.99v-56.66c-.28.17-.58.36-.86.55Z"/><path class="cls-3" d="M1115.48,206.05c-1.38.61-2.81,1.3-4.26,2.1-13.86,7.66-30.25,24.53-30.25,63.69,0,49.52-28.64,73.08-59.23,80.71-11.82,2.95-23.04,3.95-31.44,4.2,3.58-1.25,7-3.81,11.04-7.16,5.62-4.66,9.06-8.55,13.53-18.43,5.95-13.17,11.19-31.33,11.19-57.67s15.15-41.96,34.18-52.13c16.54-8.84,36-12.67,50.99-14.76,1.47-.2,2.88-.39,4.26-.55Z"/><path class="cls-3" d="M1076.73,224.96s-23.75,24.08-23.75,57.94c0,36.79-25.02,53.95-25.02,53.95"/><path class="cls-3" d="M981.63,179.96s11.53-19.65,28.76-19.65c23.44,0,37.63,13.45,32.97,29.96-4.66,16.51-29.53,38.32-32.97,62.24-3.44,23.92,10.36,62.5,10.36,62.5"/><path class="cls-3" d="M1004.88,160.99s-33.48.63-48.4,16.61"/></svg>